<?xml version="1.0" encoding="UTF-8" standalone="no"?>
<svg xmlns:dc="http://purl.org/dc/elements/1.1/" xmlns:cc="http://creativecommons.org/ns#" xmlns:rdf="http://www.w3.org/1999/02/22-rdf-syntax-ns#" xmlns:svg="http://www.w3.org/2000/svg" xmlns="http://www.w3.org/2000/svg" xmlns:sodipodi="http://sodipodi.sourceforge.net/DTD/sodipodi-0.dtd" xmlns:inkscape="http://www.inkscape.org/namespaces/inkscape" width="48" height="48" viewBox="0 0 48 48.000001" id="svg6826" version="1.1" inkscape:version="0.91 r13725" sodipodi:docname="baby-stroller.svg">
  <defs id="defs6828"/>
  <sodipodi:namedview id="base" pagecolor="#ffffff" bordercolor="#666666" borderopacity="1.0" inkscape:pageopacity="0.0" inkscape:pageshadow="2" inkscape:zoom="4.5321125" inkscape:cx="-1.3162079" inkscape:cy="28.190979" inkscape:document-units="px" inkscape:current-layer="layer1" showgrid="true" units="px" inkscape:window-width="1366" inkscape:window-height="716" inkscape:window-x="-8" inkscape:window-y="-8" inkscape:window-maximized="1" inkscape:object-nodes="true">
    <inkscape:grid type="xygrid" id="grid6888"/>
  </sodipodi:namedview>
  
  <g inkscape:label="Layer 1" inkscape:groupmode="layer" id="layer1" transform="translate(0,-1004.3622)">
    <g id="g18802" transform="translate(-3457.9958,182.0042)">
      <path inkscape:connector-curvature="0" id="path18790" d="m 3505.9958,846.358 a 24,24 0 0 0 -24,-24 24,24 0 0 0 -24,24 24,24 0 0 0 24,24 24,24 0 0 0 24,-24 z" style="opacity:1;fill:#e040fb;fill-opacity:1;stroke:none;stroke-width:0.26458335;stroke-linecap:round;stroke-linejoin:round;stroke-miterlimit:4;stroke-dasharray:none;stroke-dashoffset:0;stroke-opacity:1"/>
      <g id="g18800" transform="translate(754.59562,633.99227)" style="fill:#ffffff">
        <path sodipodi:nodetypes="ccccc" inkscape:connector-curvature="0" style="fill:#ffffff;fill-rule:evenodd;stroke:none;stroke-width:1.00000072;stroke-linecap:round;stroke-linejoin:round;stroke-miterlimit:4;stroke-dasharray:none;stroke-opacity:1" d="m 2731.3008,209.86215 0,-10.4929 6.891,5.5952 c 0.7016,0.5696 1.109,1.4252 1.109,2.3289 l 0,2.5688" id="path18792"/>
        <path style="opacity:1;fill:#ffffff;fill-opacity:1;stroke:none;stroke-width:1.00000072;stroke-linecap:round;stroke-linejoin:round;stroke-miterlimit:4;stroke-dasharray:none;stroke-dashoffset:0;stroke-opacity:1" d="m 2724.7422,220.8622 a 2.2499995,2.2499995 0 0 0 -2.25,2.25 2.2499995,2.2499995 0 0 0 2.25,2.25 2.2499995,2.2499995 0 0 0 2.25,-2.25 2.2499995,2.2499995 0 0 0 -2.25,-2.25 z m 0,1.25 a 1,1 0 0 1 1,1 1,1 0 0 1 -1,1 1,1 0 0 1 -1,-1 1,1 0 0 1 1,-1 z" id="path18794" inkscape:connector-curvature="0"/>
        <path inkscape:connector-curvature="0" id="path18796" d="m 2715.5,208.35824 0,1 2.3555,0 c 0.194,0 0.3697,0.11016 0.4531,0.28516 l 4.1894,8.79102 c 0.4143,0.8691 1.2931,1.42382 2.2559,1.42382 l 8.5,0 c 0.9461,0 1.8154,-0.53641 2.2383,-1.38281 l 3.8086,-7.625 -10.0586,0.0117 -9.2461,0 -0.7852,-1.64844 c -0.2483,-0.5211 -0.7764,-0.85537 -1.3535,-0.85547 z" style="color:#000000;font-style:normal;font-variant:normal;font-weight:normal;font-stretch:normal;font-size:medium;line-height:normal;font-family:sans-serif;text-indent:0;text-align:start;text-decoration:none;text-decoration-line:none;text-decoration-style:solid;text-decoration-color:#000000;letter-spacing:normal;word-spacing:normal;text-transform:none;direction:ltr;writing-mode:lr-tb;baseline-shift:baseline;text-anchor:start;white-space:normal;clip-rule:nonzero;display:inline;overflow:visible;visibility:visible;opacity:1;isolation:auto;mix-blend-mode:normal;color-interpolation:sRGB;color-interpolation-filters:linearRGB;solid-color:#000000;solid-opacity:1;fill:#ffffff;fill-opacity:1;fill-rule:evenodd;stroke:none;stroke-width:1px;stroke-linecap:butt;stroke-linejoin:miter;stroke-miterlimit:4;stroke-dasharray:none;stroke-dashoffset:0;stroke-opacity:1;color-rendering:auto;image-rendering:auto;shape-rendering:auto;text-rendering:auto;enable-background:accumulate"/>
        <path id="path18798" d="m 2733.2418,220.8622 a 2.2499995,2.2499995 0 0 0 -2.25,2.25 2.2499995,2.2499995 0 0 0 2.25,2.25 2.2499995,2.2499995 0 0 0 2.25,-2.25 2.2499995,2.2499995 0 0 0 -2.25,-2.25 z m 0,1.25 a 1,1 0 0 1 1,1 1,1 0 0 1 -1,1 1,1 0 0 1 -1,-1 1,1 0 0 1 1,-1 z" style="opacity:1;fill:#ffffff;fill-opacity:1;stroke:none;stroke-width:1.00000072;stroke-linecap:round;stroke-linejoin:round;stroke-miterlimit:4;stroke-dasharray:none;stroke-dashoffset:0;stroke-opacity:1" inkscape:connector-curvature="0"/>
      </g>
    </g>
  </g>

	<metadata>
		<rdf:RDF xmlns:rdf="http://www.w3.org/1999/02/22-rdf-syntax-ns#" xmlns:rdfs="http://www.w3.org/2000/01/rdf-schema#" xmlns:dc="http://purl.org/dc/elements/1.1/">
			<rdf:Description about="https://iconscout.com/legal#licenses" dc:title="baby-stroller" dc:description="baby-stroller" dc:publisher="Iconscout" dc:date="2017-04-11" dc:format="image/svg+xml" dc:language="en">
				<dc:creator>
					<rdf:Bag>
						<rdf:li>Vignesh Oviyan</rdf:li>
					</rdf:Bag>
				</dc:creator>
			</rdf:Description>
		</rdf:RDF>
    </metadata></svg>
