<?xml version="1.0" encoding="UTF-8" standalone="no"?>
<svg xmlns:dc="http://purl.org/dc/elements/1.1/" xmlns:cc="http://creativecommons.org/ns#" xmlns:rdf="http://www.w3.org/1999/02/22-rdf-syntax-ns#" xmlns:svg="http://www.w3.org/2000/svg" xmlns="http://www.w3.org/2000/svg" xmlns:sodipodi="http://sodipodi.sourceforge.net/DTD/sodipodi-0.dtd" xmlns:inkscape="http://www.inkscape.org/namespaces/inkscape" width="48" height="48" viewBox="0 0 48 48.000001" id="svg2" version="1.1" inkscape:version="0.91 r13725" sodipodi:docname="basketball-ball-sport-game-sports-play-dribble.svg">
  <defs id="defs4"/>
  <sodipodi:namedview id="base" pagecolor="#ffffff" bordercolor="#666666" borderopacity="1.0" inkscape:pageopacity="0.0" inkscape:pageshadow="2" inkscape:zoom="7.919596" inkscape:cx="6.4903709" inkscape:cy="24.436737" inkscape:document-units="px" inkscape:current-layer="layer1" showgrid="false" units="px" inkscape:window-width="1366" inkscape:window-height="716" inkscape:window-x="-8" inkscape:window-y="-8" inkscape:window-maximized="1"/>
  
  <g inkscape:label="Layer 1" inkscape:groupmode="layer" id="layer1" transform="translate(0,-1004.3622)">
    <g style="display:inline" id="g17251" transform="translate(-2044.7566,-411.8513)">
      <path inkscape:connector-curvature="0" style="opacity:1;fill:#04dbdd;fill-opacity:1;stroke:none;stroke-width:0.26458335;stroke-linecap:round;stroke-linejoin:round;stroke-miterlimit:4;stroke-dasharray:none;stroke-dashoffset:0;stroke-opacity:1" d="m 2092.7566,1440.2135 a 24,24 0 0 0 -24,-24 24,24 0 0 0 -24,24 24,24 0 0 0 24,24 24,24 0 0 0 24,-24 z" id="path17231"/>
      <g transform="translate(123.15319,761.70872)" id="g17249" style="display:inline;fill:#ffffff">
        <path inkscape:connector-curvature="0" id="path17233" d="m 1945.8008,665.00868 a 13.499999,13.499999 0 0 0 -0.1016,0.004 c -0.1048,3.36301 1.0949,6.69496 3.4512,9.24023 l 5.6328,-5.63281 a 13.499999,13.499999 0 0 0 -8.9824,-3.61133 z" style="opacity:1;fill:#ffffff;fill-opacity:1;stroke:none;stroke-width:1;stroke-linecap:round;stroke-linejoin:round;stroke-miterlimit:4;stroke-dasharray:none;stroke-dashoffset:0;stroke-opacity:1"/>
        <path inkscape:connector-curvature="0" id="path17235" d="m 1944.6992,665.04775 a 13.499999,13.499999 0 0 0 -8.2715,3.57617 l 9.1758,9.17578 2.8399,-2.83984 c -2.5384,-2.72656 -3.8389,-6.3004 -3.7442,-9.91211 z" style="opacity:1;fill:#ffffff;fill-opacity:1;stroke:none;stroke-width:1;stroke-linecap:round;stroke-linejoin:round;stroke-miterlimit:4;stroke-dasharray:none;stroke-dashoffset:0;stroke-opacity:1"/>
        <path inkscape:connector-curvature="0" id="path17237" d="m 1935.7168,669.32704 a 13.499999,13.499999 0 0 0 -3.5664,8.27539 c 3.6119,-0.0949 7.1849,1.20352 9.9101,3.74024 l 2.836,-2.83594 z" style="opacity:1;fill:#ffffff;fill-opacity:1;stroke:none;stroke-width:1;stroke-linecap:round;stroke-linejoin:round;stroke-miterlimit:4;stroke-dasharray:none;stroke-dashoffset:0;stroke-opacity:1"/>
        <path inkscape:connector-curvature="0" id="path17239" d="m 1955.4844,669.3329 -5.6289,5.62891 c 2.5333,2.34699 5.8626,3.5559 9.2363,3.45117 a 13.499999,13.499999 0 0 0 -3.6074,-9.08008 z" style="opacity:1;fill:#ffffff;fill-opacity:1;stroke:none;stroke-width:1;stroke-linecap:round;stroke-linejoin:round;stroke-miterlimit:4;stroke-dasharray:none;stroke-dashoffset:0;stroke-opacity:1"/>
        <path inkscape:connector-curvature="0" id="path17241" d="m 1949.1504,675.66689 -2.8399,2.83984 9.1797,9.17969 a 13.499999,13.499999 0 0 0 3.5664,-8.27539 c -3.6216,0.0933 -7.1924,-1.21728 -9.9062,-3.74414 z" style="opacity:1;fill:#ffffff;fill-opacity:1;stroke:none;stroke-width:1;stroke-linecap:round;stroke-linejoin:round;stroke-miterlimit:4;stroke-dasharray:none;stroke-dashoffset:0;stroke-opacity:1"/>
        <path inkscape:connector-curvature="0" id="path17243" d="m 1932.5742,678.58876 c -0.1528,-6.5e-4 -0.3059,0.009 -0.459,0.0137 a 13.499999,13.499999 0 0 0 3.6075,9.07813 l 5.6289,-5.62891 c -2.4278,-2.24817 -5.5719,-3.44918 -8.7774,-3.46289 z" style="opacity:1;fill:#ffffff;fill-opacity:1;stroke:none;stroke-width:1;stroke-linecap:round;stroke-linejoin:round;stroke-miterlimit:4;stroke-dasharray:none;stroke-dashoffset:0;stroke-opacity:1"/>
        <path inkscape:connector-curvature="0" id="path17245" d="m 1945.6035,679.21376 -2.8359,2.83594 c 2.522,2.70798 3.8436,6.28075 3.7461,9.91602 a 13.499999,13.499999 0 0 0 8.2636,-3.57813 z" style="opacity:1;fill:#ffffff;fill-opacity:1;stroke:none;stroke-width:1;stroke-linecap:round;stroke-linejoin:round;stroke-miterlimit:4;stroke-dasharray:none;stroke-dashoffset:0;stroke-opacity:1"/>
        <path inkscape:connector-curvature="0" id="path17247" d="m 1942.0625,682.75478 -5.6387,5.63867 a 13.499999,13.499999 0 0 0 9.0879,3.60742 c 0.1085,-3.38656 -1.1077,-6.71811 -3.4492,-9.24609 z" style="opacity:1;fill:#ffffff;fill-opacity:1;stroke:none;stroke-width:1;stroke-linecap:round;stroke-linejoin:round;stroke-miterlimit:4;stroke-dasharray:none;stroke-dashoffset:0;stroke-opacity:1"/>
      </g>
    </g>
  </g>

	<metadata>
		<rdf:RDF xmlns:rdf="http://www.w3.org/1999/02/22-rdf-syntax-ns#" xmlns:rdfs="http://www.w3.org/2000/01/rdf-schema#" xmlns:dc="http://purl.org/dc/elements/1.1/">
			<rdf:Description about="https://iconscout.com/legal#licenses" dc:title="basketball-ball-sport-game-sports-play-dribble" dc:description="basketball-ball-sport-game-sports-play-dribble" dc:publisher="Iconscout" dc:date="2017-04-26" dc:format="image/svg+xml" dc:language="en">
				<dc:creator>
					<rdf:Bag>
						<rdf:li>Vignesh Oviyan</rdf:li>
					</rdf:Bag>
				</dc:creator>
			</rdf:Description>
		</rdf:RDF>
    </metadata></svg>
