<?xml version="1.0" encoding="UTF-8" standalone="no"?>
<svg xmlns:dc="http://purl.org/dc/elements/1.1/" xmlns:cc="http://creativecommons.org/ns#" xmlns:rdf="http://www.w3.org/1999/02/22-rdf-syntax-ns#" xmlns:svg="http://www.w3.org/2000/svg" xmlns="http://www.w3.org/2000/svg" xmlns:sodipodi="http://sodipodi.sourceforge.net/DTD/sodipodi-0.dtd" xmlns:inkscape="http://www.inkscape.org/namespaces/inkscape" width="48" height="48" viewBox="0 0 48 48.000001" id="svg6826" version="1.1" inkscape:version="0.91 r13725" sodipodi:docname="car-sedan-taxi-cab-transport-automobile.svg">
  <defs id="defs6828"/>
  <sodipodi:namedview id="base" pagecolor="#ffffff" bordercolor="#666666" borderopacity="1.0" inkscape:pageopacity="0.0" inkscape:pageshadow="2" inkscape:zoom="5.6568545" inkscape:cx="-22.477768" inkscape:cy="26.215891" inkscape:document-units="px" inkscape:current-layer="layer1" showgrid="true" units="px" inkscape:window-width="1366" inkscape:window-height="716" inkscape:window-x="-8" inkscape:window-y="-8" inkscape:window-maximized="1" inkscape:object-nodes="true">
    <inkscape:grid type="xygrid" id="grid6888"/>
  </sodipodi:namedview>
  
  <g inkscape:label="Layer 1" inkscape:groupmode="layer" id="layer1" transform="translate(0,-1004.3622)">
    <g id="g18288" transform="translate(-3527.8984,661.07955)">
      <path inkscape:connector-curvature="0" id="path18274" d="m 3575.8984,367.28265 a 24,24 0 0 0 -24,-24 24,24 0 0 0 -24,24 24,24 0 0 0 24,24 24,24 0 0 0 24,-24 z" style="opacity:1;fill:#04dbdd;fill-opacity:1;stroke:none;stroke-width:0.26458335;stroke-linecap:round;stroke-linejoin:round;stroke-miterlimit:4;stroke-dasharray:none;stroke-dashoffset:0;stroke-opacity:1"/>
      <g id="g18286" transform="translate(949.39545,41.170257)" style="fill:#ffffff">
        <path style="fill:#ffffff;fill-rule:evenodd;stroke:none;stroke-width:1;stroke-linecap:round;stroke-linejoin:round;stroke-miterlimit:4;stroke-dasharray:none;stroke-opacity:1" d="m 2602.7285,315.86611 a 7.2723795,7.2723795 0 0 0 -0.7265,0.0137 l -5.0059,0.34375 a 3.5015477,3.5015477 0 0 0 -2.8906,1.92578 l -1.752,3.49414 a 4.8932619,4.8932619 0 0 1 -0.1269,0.22656 c 0.051,-0.002 0.1038,-0.008 0.1543,-0.008 l 20.2324,0 c 0.053,0 0.1084,0.006 0.1621,0.008 a 4.8932602,4.8932602 0 0 1 -0.1289,-0.22656 l -1.752,-3.49414 a 3.5015472,3.5015472 0 0 0 -2.8906,-1.92578 l -5.0059,-0.34375 a 7.2723795,7.2723795 0 0 0 -0.2695,-0.0137 z" id="path18276" inkscape:connector-curvature="0"/>
        <path style="fill:#ffffff;fill-rule:evenodd;stroke:none;stroke-width:1;stroke-linecap:round;stroke-linejoin:round;stroke-miterlimit:4;stroke-dasharray:none;stroke-opacity:1" d="m 2592.3809,-697.5 c -0.508,0 -1.0153,0.14373 -1.252,0.36328 0,0 0,0.002 0,0.002 a 0.50005,0.50005 0 0 1 -0.012,0.0117 l -0.2344,0.23633 A 1.2929799,1.2929799 0 0 0 2590.5039,-696 l 1.6387,0 c 0.528,0 1.0161,0.27926 1.2851,0.73438 l 1.5196,2.57031 c 0.1818,0.3075 -0.04,0.69531 -0.3965,0.69531 l -4.0469,0 0,0.53125 c 0.2262,0.56183 0.797,0.96875 1.4941,0.96875 l 21.0118,0 c 0.697,0 1.2679,-0.40692 1.4941,-0.96875 l 0,-0.53125 -4.0469,0 c -0.3567,0 -0.5783,-0.38781 -0.3965,-0.69531 l 1.5196,-2.57031 c 0.269,-0.45512 0.7571,-0.73438 1.2851,-0.73438 l 1.6368,0 a 1.2929799,1.2929799 0 0 0 -0.377,-0.88672 l -0.2109,-0.21289 a 0.50005,0.50005 0 0 1 0,-0.002 0.50005,0.50005 0 0 1 -0.037,-0.0332 c -0.2354,-0.22105 -0.746,-0.36523 -1.2559,-0.36523 l -20.2324,0 z m 5.5742,1.5 9.0918,0 a 0.46122619,0.46122619 0 0 1 0.3985,0.69531 l -1.5215,2.57031 A 1.4966815,1.4966815 0 0 1 2604.6367,-692 l -4.2676,0 a 1.4966496,1.4966496 0 0 1 -1.2871,-0.73438 l -1.5215,-2.57031 A 0.46123611,0.46123611 0 0 1 2597.9551,-696 Z" transform="translate(0,1020.3622)" id="path18278" inkscape:connector-curvature="0"/>
        <path style="fill:#ffffff;fill-rule:evenodd;stroke:none;stroke-width:1;stroke-linecap:round;stroke-linejoin:round;stroke-miterlimit:4;stroke-dasharray:none;stroke-opacity:1" d="m 2590.502,330.39931 a 2,2 0 0 0 1.998,1.96289 l 20,0 a 2,2 0 0 0 1.998,-1.96289 c -0.4255,0.28886 -0.939,0.46289 -1.4921,0.46289 l -21.0118,0 c -0.5531,0 -1.0666,-0.17403 -1.4921,-0.46289 z" id="path18280" inkscape:connector-curvature="0"/>
        <path inkscape:connector-curvature="0" style="opacity:1;fill:#ffffff;fill-opacity:1;stroke:none;stroke-width:1;stroke-linecap:butt;stroke-linejoin:round;stroke-miterlimit:4;stroke-dasharray:none;stroke-dashoffset:0;stroke-opacity:1" d="m 2596.5,333.3622 1e-4,1.98994 a 1.0040331,1.0040331 0 0 1 -1.0001,1.00405 l -1.5049,0.006 a 0.99116695,0.99116695 0 0 1 -0.995,-1.00541 l 0.029,-1.98028" id="path18282"/>
        <path inkscape:connector-curvature="0" style="opacity:1;fill:#ffffff;fill-opacity:1;stroke:none;stroke-width:1;stroke-linecap:butt;stroke-linejoin:round;stroke-miterlimit:4;stroke-dasharray:none;stroke-dashoffset:0;stroke-opacity:1" d="m 2612,333.3622 1e-4,1.98994 A 1.0040331,1.0040331 0 0 1 2611,336.35619 l -1.5049,0.006 a 0.99116695,0.99116695 0 0 1 -0.995,-1.00541 l 0.029,-1.98028" id="path18284"/>
      </g>
    </g>
  </g>

	<metadata>
		<rdf:RDF xmlns:rdf="http://www.w3.org/1999/02/22-rdf-syntax-ns#" xmlns:rdfs="http://www.w3.org/2000/01/rdf-schema#" xmlns:dc="http://purl.org/dc/elements/1.1/">
			<rdf:Description about="https://iconscout.com/legal#licenses" dc:title="car-sedan-taxi-cab-transport-automobile" dc:description="car-sedan-taxi-cab-transport-automobile" dc:publisher="Iconscout" dc:date="2017-04-11" dc:format="image/svg+xml" dc:language="en">
				<dc:creator>
					<rdf:Bag>
						<rdf:li>Vignesh Oviyan</rdf:li>
					</rdf:Bag>
				</dc:creator>
			</rdf:Description>
		</rdf:RDF>
    </metadata></svg>
