<svg xmlns="http://www.w3.org/2000/svg" width="48" height="48" viewBox="0 0 48 48"><g transform="translate(-18 -1014.992)"><circle cx="42.001" cy="1038.992" r="24" fill="#ffa40b" fill-rule="evenodd"/><path fill="#ff7712" d="M 17 11 L 17 13 L 14 13 L 14 20 L 17 23 L 17 26 L 14 26 L 14 28 L 16 30 L 16 40 L 24 48 A 23.999998 23.999998 0 0 0 47.816406 26.816406 L 34 13 L 33 13 L 31 11 L 29 11 L 29 13 L 21 13 L 19 11 L 17 11 z " transform="translate(18 1014.992)"/><path fill="#fff" d="m 35.000921,1025.992 0,2 -3,0 0,7 3,0 0,6 -3,0 0,2 2,0 0,12 2,0 0,-7.5 12,0 0,7.5 2,0 0,-12 2,0 0,-2 -3,0 0,-6 3,0 0,-7 -3,0 0,-2 -2,0 0,2 -10,0 0,-2 -2,0 z m 2,9 10,0 0,6 -10,0 0,-6 z m -1,8 12,0 0,3.5 -12,0 0,-3.5 z"/></g></svg>