<svg id="SvgjsSvg1022" width="288" height="288" xmlns="http://www.w3.org/2000/svg" version="1.1" xmlns:xlink="http://www.w3.org/1999/xlink" xmlns:svgjs="http://svgjs.com/svgjs"><defs id="SvgjsDefs1023"></defs><g id="SvgjsG1024" transform="matrix(0.9167,0,0,0.9167,11.995200000000011,11.995200000000011)"><svg xmlns="http://www.w3.org/2000/svg" viewBox="0 0 24 24" width="288" height="288"><path fill="#ffffff" d="M12 0C5.383 0 0 5.383 0 12s5.383 12 12 12 12-5.383 12-12S18.617 0 12 0z" class="color69B342 svgShape"></path><path fill="#f8004d" d="M12 .25c6.575 0 11.926 5.316 11.994 11.875 0-.042.006-.083.006-.125 0-6.617-5.383-12-12-12S0 5.383 0 12c0 .042.006.083.006.125C.074 5.566 5.426.25 12 .25z" opacity=".2" class="colorFFF svgShape"></path><path d="M12 23.75C5.425 23.75.074 18.434.006 11.875c0 .042-.006.083-.006.125 0 6.617 5.383 12 12 12s12-5.383 12-12c0-.042-.006-.083-.006-.125C23.926 18.434 18.574 23.75 12 23.75z" opacity=".1" fill="#000000" class="color000 svgShape"></path><path fill="#f8004d" d="M9.5 17.914l-5.5-5.5L5.414 11 9.5 15.086 17.586 7 19 8.414z" class="colorFFF svgShape"></path><linearGradient id="a" x1="14.607" x2="19.965" y1="13.521" y2="18.879" gradientUnits="userSpaceOnUse"><stop offset="0" stop-opacity=".1" stop-color="#000000" class="stopColor000000 svgShape"></stop><stop offset="1" stop-opacity="0" stop-color="#000000" class="stopColor000000 svgShape"></stop></linearGradient><path fill="url(#a)" d="M19 8.414l-9.5 9.5 5.652 5.652c4.674-1.276 8.22-5.302 8.77-10.23L19 8.413z"></path><linearGradient id="b" x1="1.125" x2="22.875" y1="6.929" y2="17.071" gradientUnits="userSpaceOnUse"><stop offset="0" stop-color="#ff8066" stop-opacity=".2" class="stopColorFFF svgShape"></stop><stop offset="1" stop-color="#ff8066" stop-opacity="0" class="stopColorFFF svgShape"></stop></linearGradient><path fill="url(#b)" d="M12 0C5.383 0 0 5.383 0 12s5.383 12 12 12 12-5.383 12-12S18.617 0 12 0z"></path></svg></g></svg>