<svg xmlns="http://www.w3.org/2000/svg" id="Layer_1" width="48" height="48" viewBox="0 0 48 48"><g id="g4142"><circle id="circle3918" cx="24" cy="24" r="24" fill="#1d67b1"/><path id="path7" fill="#fff" d="m 21.144531,13.015051 c -0.360375,-0.03963 -0.731125,0.0047 -1.078125,0.138672 -0.694,0.269 -1.216297,0.86114 -1.404297,1.61914 l -0.740234,4.296875 C 14.796875,19.739738 13,20.88752 13,22.24552 c -10e-4,2.439 5.565734,3.753906 10.802734,3.753906 5.237,0 10.802734,-1.315906 10.802734,-3.753906 0,-1.357 -1.796875,-2.507735 -4.921875,-3.177735 l -0.748047,-4.332031 c -0.179999,-0.722 -0.702484,-1.313031 -1.396484,-1.582031 -0.694,-0.268 -1.478656,-0.180578 -2.097656,0.232422 l -0.423828,0.283203 c -0.737,0.491 -1.689735,0.491 -2.427735,0 l -0.425781,-0.283203 c -0.3095,-0.2065 -0.659156,-0.331469 -1.019531,-0.371094 z m -0.109375,0.990234 c 0.201625,0.02225 0.397719,0.09344 0.574219,0.210938 l 0.425781,0.283203 c 1.074,0.716 2.461156,0.716 3.535156,0 l 0.425781,-0.283203 c 0.354,-0.237 0.784641,-0.282906 1.181641,-0.128906 0.397,0.154 0.683297,0.477515 0.779297,0.853515 l 0.832031,4.826172 c -0.067,0.372 -1.801328,1.212891 -4.986328,1.212891 -3.186,0 -4.922281,-0.841891 -4.988281,-1.212891 l 0.826172,-4.789062 c 0.104,-0.413 0.389109,-0.736625 0.787109,-0.890625 0.199,-0.0765 0.405797,-0.104282 0.607422,-0.08203 z m -3.298828,6.132813 -0.25,1.451172 c -0.003,0.015 0.003,0.02797 0.002,0.04297 -10e-4,0.015 -0.0098,0.02797 -0.0098,0.04297 0,0.034 0.01067,0.0627 0.01367,0.0957 0.001,0.007 -4.7e-5,0.01449 0.002,0.02149 0.16,1.523 3.340594,2.220703 6.308594,2.220703 2.968,0 6.148594,-0.698703 6.308594,-2.220703 0.002,-0.007 -4.7e-5,-0.01448 0.002,-0.02149 0.003,-0.033 0.01367,-0.0627 0.01367,-0.0957 0,-0.015 -0.0078,-0.02897 -0.0098,-0.04297 -0.001,-0.014 0.005,-0.02797 0.002,-0.04297 l -0.251953,-1.451172 c 2.55,0.608 3.738281,1.495422 3.738281,2.107422 8.84e-4,1.15 -3.72985,2.753906 -9.80285,2.753906 C 17.729734,24.999426 14,23.39452 14,22.24552 c 0,-0.614 1.186328,-1.499422 3.736328,-2.107422 z m 0.876953,0.80664 c 1.113,0.706 3.203453,1.03711 5.189453,1.03711 1.986,0 4.076453,-0.33111 5.189453,-1.03711 l 0.128906,0.742188 c -0.029,0.406 -1.834359,1.328125 -5.318359,1.328125 -3.484,0 -5.289359,-0.922125 -5.318359,-1.328125 l 0.128906,-0.742188 z m -1.884766,7.054688 c -0.823,0 -1.510171,0.569031 -1.701171,1.332031 l -0.556641,0 c -0.276,0 -0.5,0.224 -0.5,0.5 0,0.276 0.224,0.5 0.5,0.5 l 0.5,0 0,2.279297 c 0,1.317 1.070672,2.388672 2.388672,2.388672 l 1.666015,0 c 2.359,0 4.279297,-1.918344 4.279297,-4.277344 l 0,-0.140625 c 0.327,-0.093 0.673,-0.09105 1,0.002 l 0,0.138672 c 0,0.306 0.0347,0.603625 0.0957,0.890625 0.018,0.083 0.05222,0.160188 0.07422,0.242188 0.056,0.201 0.113266,0.39989 0.197266,0.58789 0.046,0.104 0.108109,0.198828 0.162109,0.298829 0.084,0.153999 0.165578,0.307218 0.267578,0.449218 0.073,0.103 0.159188,0.195969 0.242188,0.292969 0.107,0.125 0.214937,0.247375 0.335937,0.359375 0.039,0.036 0.06742,0.08219 0.107422,0.117188 0.078,0.067 0.166047,0.116734 0.248047,0.177734 0.084,0.063 0.164906,0.125641 0.253906,0.18164 0.137,0.087 0.279781,0.161422 0.425781,0.232422 0.095,0.047 0.18811,0.09577 0.28711,0.134766 0.158,0.063 0.321328,0.108344 0.486328,0.152344 0.095,0.025 0.186203,0.06012 0.283203,0.07813 0.264,0.052 0.534594,0.08203 0.808594,0.08203 l 1.667968,0 c 1.317001,0 2.388672,-1.071672 2.388672,-2.388672 l 0,-2.279297 0.5,0 c 0.276,0 0.5,-0.224 0.5,-0.5 0,-0.276 -0.224953,-0.5 -0.501953,-0.5 l -0.55664,0 c -0.190998,-0.763051 -0.87817,-1.332082 -1.70117,-1.332082 l -3.074219,0 -1.111328,0 -5.777344,0 -1.111328,0 -3.074219,0 z m 0,1 0.738282,0 -1.498047,1.498047 0,-0.738281 0.002,0 c -4.7e-5,-0.418 0.338765,-0.759766 0.757765,-0.759766 z m 2.152344,0 0.921875,0 0.470703,0 -4.179687,4.179688 c -0.078,-0.174 -0.123047,-0.36536 -0.123047,-0.56836 l 0,-0.699219 2.910156,-2.912109 z m 3.96875,0 1.90625,0 c -0.128,0.179 -0.228688,0.375938 -0.304687,0.585938 -0.425001,-0.098 -0.870875,-0.100954 -1.296876,-0.002 -0.076,-0.209954 -0.176687,-0.405938 -0.304687,-0.583938 z m 3.841797,0 0.49414,0 -1.867187,1.867188 c -0.002,-0.049 -0.01758,-0.09453 -0.01758,-0.144532 l 0,-0.333984 c 2e-6,-0.766 0.624627,-1.388672 1.390627,-1.388672 z m 1.908203,0 1.388672,0 -3.865235,3.865234 c -0.008,-0.009 -0.01739,-0.01539 -0.02539,-0.02539 -0.063,-0.073 -0.127594,-0.14561 -0.183594,-0.22461 -0.078,-0.11 -0.143031,-0.227703 -0.207031,-0.345703 -0.04,-0.076 -0.08705,-0.147562 -0.123047,-0.226562 -0.003,-0.007 -0.0029,-0.01449 -0.0059,-0.02148 l 3.021525,-3.021489 z m 2.675781,0.130859 c 0.212,0.135 0.361328,0.359907 0.361328,0.628907 l 0,0.398437 -3.757812,3.755859 c -0.045,-0.01 -0.08881,-0.02416 -0.132813,-0.03516 -0.128,-0.034 -0.255953,-0.06919 -0.376953,-0.117187 -0.074,-0.03 -0.144797,-0.06852 -0.216797,-0.103516 -0.09,-0.044 -0.177671,-0.09058 -0.263671,-0.142578 l 4.386718,-4.384766 z m -9.742187,0.02148 c 0.302,0.152 0.540968,0.407656 0.667969,0.722656 l -4.125,4.125 -0.716797,0 c -0.198,0 -0.384688,-0.04319 -0.554688,-0.117188 l 4.728516,-4.730468 z M 22.25,31.239655 c -0.223,1.39 -1.316032,2.483032 -2.707032,2.707032 L 22.25,31.239655 Z m 9.384765,0.332032 0,1.039062 c 0,0.765 -0.622672,1.388672 -1.388672,1.388672 l -1.039062,0 2.427734,-2.427734 z"/></g></svg>