<svg xmlns="http://www.w3.org/2000/svg" viewBox="0 0 128 128"><text fill="#24253a" font-family="MyriadPro-Regular, Myriad Pro" font-size="40" letter-spacing="0em" transform="translate(53.94 -510.27)">2<tspan x="-10.3" y="228">12</tspan><tspan x="-10.3" y="456">22</tspan><tspan x="-10.3" y="684">32</tspan><tspan x="-10.3" y="912">42</tspan><tspan x="-10.3" y="1140">52</tspan><tspan x="-10.3" y="1368">62</tspan><tspan x="-10.3" y="1596">72</tspan><tspan x="-10.3" y="1824">82</tspan><tspan x="-10.3" y="2052">92</tspan><tspan x="-20.6" y="2280">102</tspan><tspan x="-20.6" y="2508">112</tspan><tspan x="-20.6" y="2736">122</tspan><tspan x="-20.6" y="2964">132</tspan><tspan x="-20.6" y="3192">142</tspan><tspan x="-20.6" y="3420">152</tspan><tspan x="-20.6" y="3648">162</tspan><tspan x="-20.6" y="3876">172</tspan><tspan x="-20.6" y="4104">182</tspan><tspan x="-20.6" y="4332">192</tspan><tspan x="-20.6" y="4560">202</tspan><tspan x="-20.6" y="4788">212</tspan><tspan x="-20.6" y="5016">222</tspan><tspan x="-20.6" y="5244">232</tspan><tspan x="-20.6" y="5472">242</tspan></text><path fill="#69b0ee" d="M128,64A64,64,0,1,1,64,0,63.84,63.84,0,0,1,128,64Z" data-name="Circle Grid"/><path fill="#231f20" d="M127.41,72.69a64,64,0,0,1-56.87,55L29.93,87.07l-.38-.42-.22-.27a2.43,2.43,0,0,1-.14-.2,3.62,3.62,0,0,1-.22-.32l-.06-.11c-.08-.13-.16-.28-.23-.42v0L25,81.62h0l-.18-.18-.16-.2a2.37,2.37,0,0,1-.41-.93,1.55,1.55,0,0,1,0-.21c0-.11,0-.21,0-.32v-11a2.53,2.53,0,0,1,2.53-2.53H28v-.38c0-.18,0-.36,0-.54l0-.25a6.15,6.15,0,0,1,.19-.95l.06-.21a6.08,6.08,0,0,1,.44-1.06c.12-.22.25-.44.39-.65a6.26,6.26,0,0,1,.46-.59,6.63,6.63,0,0,1,.52-.54c.19-.17.39-.33.59-.48V56.3A33.34,33.34,0,0,1,64,23c1,0,2,0,2.91.13l.7.07c.37,0,.73.08,1.09.13s1,.16,1.51.25,1.18.24,1.76.39c.28.06.55.14.83.22.57.15,1.13.32,1.68.5l.82.29q.4.14.81.3c.27.11.54.21.8.33l.5.22a3.48,3.48,0,0,1,.48.21c.43.19.84.4,1.26.61.72.37,1.42.76,2.11,1.18.29.17.57.35.85.53s.34.22.5.34c.34.22.66.45,1,.69s.64.47,1,.72l.11.09.51.41c.42.34.82.69,1.21,1.05s.58.53.86.81l.3.29.21.21c.3.31.61.63.9,1Z" opacity=".3"/><path fill="#575b6d" d="M34.5,63.55H30.7V56.3a33.31,33.31,0,0,1,66.61,0v5.28h-3.8V56.3a29.51,29.51,0,0,0-59,0Z"/><rect width="13.07" height="6.38" x="58.24" y="98.62" fill="#62667c" rx="1.27"/><path fill="#62667c" d="M70.27,105H65l-.11-2.11,19.82-1.41A15.85,15.85,0,0,0,99.87,86.15l.36-9.83,2.53.09-.36,9.84A18.37,18.37,0,0,1,84.86,104l-14.59,1Z"/><path fill="#dbd8dd" d="M103.83,68.69v11a2.53,2.53,0,0,1-2.53,2.53H99V66.16h2.29A2.53,2.53,0,0,1,103.83,68.69Z"/><path fill="#9a9eaf" d="M100,65.78V82.37a6.49,6.49,0,0,1-6.49,6.49h0V59.29h0A6.49,6.49,0,0,1,100,65.78Z"/><path fill="#62667c" d="M93.51,59.29V88.86l-4.76-.61a5.05,5.05,0,0,1-4.42-5V64.92a5.05,5.05,0,0,1,4.42-5Z"/><path fill="#dbd8dd" d="M24.17,68.77v11A2.53,2.53,0,0,0,26.7,82.3H29V66.24H26.7A2.53,2.53,0,0,0,24.17,68.77Z"/><path fill="#9a9eaf" d="M28,65.86V82.45a6.5,6.5,0,0,0,6.49,6.49h0V59.36h0A6.5,6.5,0,0,0,28,65.86Z"/><path fill="#62667c" d="M34.49,59.36V88.94l4.76-.61a5.07,5.07,0,0,0,4.42-5V65a5.07,5.07,0,0,0-4.42-5Z"/></svg>