<?xml version="1.0" encoding="UTF-8"?><svg xmlns="http://www.w3.org/2000/svg" xmlns:xlink="http://www.w3.org/1999/xlink" width="64px" height="64px" viewBox="0 0 64 64" version="1.1"><title>motorcycle</title><defs><path id="path-1" d="M.06 64V.04H64V64z"/></defs><g id="Page-1" stroke="none" stroke-width="1" fill="none" fill-rule="evenodd"><g id="motorcycle"><g id="Group-3"><mask id="mask-2" fill="#fff"><use xlink:href="#path-1"/></mask><path d="M64 32c0 17.673-14.327 32-32 32C14.327 64 0 49.673 0 32 0 14.327 14.327 0 32 0c17.673 0 32 14.327 32 32" id="Fill-1" fill="#73BBA3" mask="url(#mask-2)"/></g><path d="M17 48a9 9 0 0 1-8.945-10 9 9 0 0 0 17.433 2h.457A9 9 0 0 1 17 48m-5.917-10A6.007 6.007 0 0 1 17 31a6.01 6.01 0 0 1 5.657 4h-1.189A5.985 5.985 0 0 0 17 33a6.01 6.01 0 0 0-5.917 5" id="Fill-4" fill="#629986"/><path d="M47 48a9 9 0 0 1-8.945-10A9 9 0 0 0 47 46a9 9 0 0 0 8.945-8A9 9 0 0 1 47 48m5.917-10a6.01 6.01 0 0 0-7.36-4.824l-.915-1.693A5.96 5.96 0 0 1 47 31a6.007 6.007 0 0 1 5.917 7m-11.834 0a5.97 5.97 0 0 1 1.158-4.65l.678 1.255A6 6 0 0 0 41.083 38" id="Fill-5" fill="#629986"/><path d="M17 28a9 9 0 0 0-9 9 9 9 0 0 0 9 9 9 9 0 0 0 9-9 9 9 0 0 0-9-9m0 3c3.308 0 6 2.692 6 6s-2.692 6-6 6-6-2.692-6-6 2.692-6 6-6" id="Fill-6" fill="#4C5665"/><path d="M47 28a9 9 0 0 0-9 9 9 9 0 0 0 9 9 9 9 0 0 0 9-9 9 9 0 0 0-9-9m0 3c3.308 0 6 2.692 6 6s-2.692 6-6 6-6-2.692-6-6 2.692-6 6-6" id="Fill-7" fill="#4C5665"/><path d="M33 40h-7.055a9.182 9.182 0 0 0 0-2H33c.327 0 .638-.104.9-.3l2-1.5c.081-.061.154-.128.218-.2a1.5 1.5 0 0 1-.218 2.2l-2 1.5c-.26.194-.575.3-.9.3m-10.805 0H18a1.5 1.5 0 0 1-1.118-2.5c.274.307.674.5 1.118.5h4.917a5.974 5.974 0 0 1-.722 2" id="Fill-8" fill="#629986"/><path d="M25.945 40h-.457c.225-.637.38-1.307.457-2a9.168 9.168 0 0 1 0 2" id="Fill-9" fill="#568071"/><path d="M25.488 40h-3.293a5.974 5.974 0 0 0 .722-2h3.028a8.979 8.979 0 0 1-.457 2" id="Fill-10" fill="#414A55"/><path d="M18 38h15c.327 0 .638-.104.9-.3l2-1.5a1.5 1.5 0 1 0-1.8-2.4L32.5 35H18a1.5 1.5 0 0 0 0 3" id="Fill-11" fill="#FFFFFE"/><path d="M41.68 21.863l1 1.85a1.5 1.5 0 0 0 2.639-1.426l-.999-1.85a1.501 1.501 0 0 0-2.64 1.426" id="Fill-12" fill="#F0CB83"/><path d="M54.999 32.393c-.094 0-.189-.009-.282-.027A8.995 8.995 0 0 0 47 28a8.974 8.974 0 0 0-3.79.834l-.759-1.403c.047-.015.094-.032.14-.052l.002-.001c.124-.055 1.951-.771 4.336-.771h.021c2.139.007 4.672.536 7.09 2.545a1.492 1.492 0 0 0 1.498.249c.141.109.282.222.422.339a1.5 1.5 0 0 1-.961 2.653" id="Fill-13" fill="#629986"/><path d="M54.717 32.366a1.482 1.482 0 0 1-.677-.321c-2.401-2-4.996-2.544-7.108-2.544-1.276 0-2.375.198-3.149.394l-.573-1.061A8.974 8.974 0 0 1 47 28a8.995 8.995 0 0 1 7.717 4.366" id="Fill-14" fill="#414A55"/><path d="M28.306 35c-1.084-.505-2.182-1.205-3.292-2.101A9.002 9.002 0 0 0 17 28a8.972 8.972 0 0 0-6.437 2.71 5.065 5.065 0 0 0-.671.389 1.5 1.5 0 0 1-.886.289c-.46 0-.915-.21-1.208-.607a1.496 1.496 0 0 1 .302-2.089c.023-.017.165-.122.413-.273a1.5 1.5 0 0 0 1.383-.216l.067-.046c.35-.235 1.915-1.157 4.012-1.157h7.907l.003.004c.449.499.891.961 1.326 1.389h-1.784c3.957 4.627 7.507 5.899 10.214 5.899a8.481 8.481 0 0 0 2.179-.282L32.5 35h-4.194m8.179-.215a1.498 1.498 0 0 0-1.278-1.271C36.356 32.99 37 32.393 37 32.393c0-.269-.042-.522-.123-.76.597-.43.986-.837 1.179-1.058.323.602.444 1.223.444 1.818 0 .331-.109.652-.311.914-.043.056-.622.794-1.704 1.478m-1.971-5.214c-1.64-.673-3.968-1.028-6.596-1.139A17.707 17.707 0 0 1 26.108 27c2.864.002 5.466.28 7.189.833.871.272 1.498.618 1.818.917.109.099.185.189.24.271a4.742 4.742 0 0 1-.841.55" id="Fill-15" fill="#629986"/><path d="M25.014 32.899c-1.033-.833-2.077-1.834-3.129-3.003l-.003-.003H14a7.791 7.791 0 0 0-3.437.817A8.972 8.972 0 0 1 17 28a9.002 9.002 0 0 1 8.014 4.899" id="Fill-16" fill="#414A55"/><path d="M32.382 35.969c-1.33 0-2.691-.324-4.076-.969H32.5l1.32-.99c.52-.137.984-.312 1.387-.496a1.499 1.499 0 0 1 1.278 1.271 7.577 7.577 0 0 1-4.103 1.184" id="Fill-17" fill="#CFCDC8"/><path d="M31.641 34.292c-2.707 0-6.257-1.272-10.214-5.899h1.784c1.543 1.517 2.995 2.6 4.366 3.344 1.749.951 3.377 1.339 4.801 1.339h.017a7.623 7.623 0 0 0 4.482-1.443c.081.238.123.491.123.76 0 0-.644.597-1.793 1.121a1.497 1.497 0 0 0-1.107.286l-.28.21a8.481 8.481 0 0 1-2.179.282m.747-4.216c-.892-.001-1.999-.229-3.381-.976a12.717 12.717 0 0 1-1.089-.668c2.628.111 4.956.466 6.596 1.139a4.608 4.608 0 0 1-2.126.505" id="Fill-18" fill="#568071"/><path d="M33.82 34.01l.28-.21a1.497 1.497 0 0 1 1.107-.286 8.642 8.642 0 0 1-1.387.496" id="Fill-19" fill="#A9A7A4"/><path d="M42.591 27.379l.002-.001c.125-.055 1.961-.775 4.357-.771 2.139.007 4.672.536 7.09 2.545a1.498 1.498 0 0 0 2.112-.192 1.498 1.498 0 0 0-.192-2.112c-3.036-2.537-6.371-3.247-9.01-3.241-3.179.005-5.426.969-5.541 1.014a1.5 1.5 0 0 0 1.182 2.758" id="Fill-20" fill="#B85756"/><path d="M26 25.5h-4.573C30.22 35.782 37 29.5 37 29.5c0-2.926-5-4-11-4" id="Fill-21" fill="#D5915B"/><path d="M9.9 28.2l-.517-.69.509.696.008-.006-.517-.69.509.696.071-.049C10.314 27.921 11.89 26.993 14 27h12c2.907-.005 5.553.273 7.297.833.871.272 1.498.618 1.818.917.163.148.253.276.306.387a.81.81 0 0 1 .079.363H37l-1.189-.915.391.301-.382-.312-.009.011.391.301-.382-.312a4.147 4.147 0 0 1-.943.791 4.606 4.606 0 0 1-2.489.711c-.892-.001-1.999-.229-3.381-.976-1.379-.747-3.022-2.025-4.892-4.104a1.502 1.502 0 0 0-2.23 2.008c2.044 2.269 3.934 3.779 5.692 4.733 1.754.954 3.385 1.341 4.811 1.339a7.62 7.62 0 0 0 4.27-1.291c.962-.646 1.461-1.281 1.531-1.37.203-.265.311-.581.311-.915a3.81 3.81 0 0 0-.374-1.661c-.432-.895-1.157-1.543-1.975-2.024-1.237-.722-2.749-1.141-4.471-1.422C29.959 24.118 28.028 24 26 24H14c-1.752.001-3.2.436-4.216.871-1.017.437-1.612.875-1.684.929a1.5 1.5 0 1 0 1.8 2.4" id="Fill-22" fill="#B85756"/><path d="M47.001 40.5a1.498 1.498 0 0 1-1.32-.787l-2.762-5.108a5.991 5.991 0 0 1 2.638-1.429l2.762 5.111a1.498 1.498 0 0 1-1.318 2.213m-6.275-9.953L36.105 22H32a1.5 1.5 0 1 1 0-3h5c.551 0 1.058.302 1.319.787l2.731 5.052a1.5 1.5 0 0 0 .537 2.603 5.68 5.68 0 0 0-.178.072 1.5 1.5 0 0 0-.238 2.629c-.153.13-.301.265-.445.404" id="Fill-23" fill="#629986"/><path d="M42.919 34.605l-.678-1.255a6.026 6.026 0 0 1 2.401-1.867l.915 1.693a5.991 5.991 0 0 0-2.638 1.429" id="Fill-24" fill="#568071"/><path d="M42.241 33.35l-1.515-2.803c.144-.139.292-.274.445-.404a1.482 1.482 0 0 0 1.42.128c.016-.007.456-.19 1.192-.376l.859 1.588a6.026 6.026 0 0 0-2.401 1.867" id="Fill-25" fill="#414A55"/><path d="M41.171 30.143a1.5 1.5 0 0 1 .238-2.629 5.68 5.68 0 0 1 .178-.072 1.516 1.516 0 0 0 .864-.011l.759 1.403a8.99 8.99 0 0 0-2.039 1.309" id="Fill-26" fill="#568071"/><path d="M42.002 30.394c-.297 0-.586-.089-.831-.251a8.99 8.99 0 0 1 2.039-1.309l.573 1.061a9.121 9.121 0 0 0-1.192.376 1.482 1.482 0 0 1-.589.123" id="Fill-27" fill="#3A4048"/><path d="M42.001 27.5a1.498 1.498 0 0 1-.951-2.661l1.401 2.592a1.49 1.49 0 0 1-.45.069" id="Fill-28" fill="#974D4C"/><path d="M32 20h4.106l9.574 17.713a1.501 1.501 0 0 0 2.64-1.426l-10.001-18.5A1.5 1.5 0 0 0 37 17h-5a1.5 1.5 0 1 0 0 3" id="Fill-29" fill="#FFFFFE"/></g></g><metadata><rdf:RDF xmlns:rdf="http://www.w3.org/1999/02/22-rdf-syntax-ns#" xmlns:rdfs="http://www.w3.org/2000/01/rdf-schema#" xmlns:dc="http://purl.org/dc/elements/1.1/"><rdf:Description about="https://iconscout.com/legal#licenses" dc:title="motorcycle" dc:description="motorcycle" dc:publisher="Iconscout" dc:date="2017-09-25" dc:format="image/svg+xml" dc:language="en"><dc:creator><rdf:Bag><rdf:li>Elegant Themes</rdf:li></rdf:Bag></dc:creator></rdf:Description></rdf:RDF></metadata></svg>